<svg width="42" height="42" viewBox="0 0 42 42" fill="none" xmlns="http://www.w3.org/2000/svg">
<path d="M36.2186 32.1668H32.3863C30.9371 32.1668 30.5004 30.9435 27.9025 28.2345C25.632 25.9543 24.6731 25.6707 24.0988 25.6707C23.3044 25.6707 23.0878 25.8982 23.0878 27.0375V30.6285C23.0878 31.5998 22.7855 32.1685 20.3505 32.1685C17.9881 32.0031 15.6973 31.2553 13.6666 29.9865C11.636 28.7178 9.92364 26.9645 8.67064 24.871C5.69654 21.0116 3.62657 16.483 2.625 11.6445C2.625 11.046 2.84331 10.5035 3.93825 10.5035H7.76715C8.75125 10.5035 9.10559 10.9602 9.49184 12.0155C11.3509 17.717 14.5232 22.6765 15.8112 22.6765C16.3049 22.6765 16.5199 22.449 16.5199 21.1662V15.2932C16.357 12.614 14.9917 12.3882 14.9917 11.4187C15.009 11.163 15.1212 10.9243 15.3047 10.7534C15.4881 10.5825 15.7283 10.4928 15.9741 10.5035H21.9929C22.8157 10.5035 23.0878 10.9305 23.0878 11.956V19.8835C23.0878 20.7392 23.4405 21.0227 23.689 21.0227C24.1827 21.0227 24.5623 20.7392 25.4674 19.7977C27.4069 17.3314 28.992 14.5843 30.173 11.6427C30.2933 11.2892 30.5215 10.9865 30.8227 10.781C31.1239 10.5756 31.4815 10.4787 31.8405 10.5052H35.6711C36.8198 10.5052 37.0633 11.1037 36.8198 11.9577C35.4262 15.2098 33.7023 18.2969 31.6776 21.1662C31.2645 21.8225 31.1 22.1637 31.6776 22.9337C32.0572 23.5322 33.4007 24.7012 34.3025 25.8125C35.6157 27.1775 36.7056 28.756 37.5302 30.485C37.8593 31.598 37.3118 32.1668 36.2186 32.1668Z" fill="black"/>
</svg>
